<?xml version="1.0" encoding="UTF-8" standalone="no" ?>
<!DOCTYPE svg PUBLIC "-//W3C//DTD SVG 1.1//EN" "http://www.w3.org/Graphics/SVG/1.1/DTD/svg11.dtd">
<svg xmlns="http://www.w3.org/2000/svg" xmlns:xlink="http://www.w3.org/1999/xlink" version="1.1" width="1080" height="1080" viewBox="0 0 1080 1080" xml:space="preserve">
<desc>Created with Fabric.js 5.2.4</desc>
<defs>
</defs>
<rect x="0" y="0" width="100%" height="100%" fill="transparent"></rect>
<g transform="matrix(1 0 0 1 540 540)" id="a7257f7f-78b3-431c-9880-83db6c1e6dfa"  >
</g>
<g transform="matrix(1 0 0 1 540 540)" id="fc4524a8-5264-4885-9bef-72e32fcca5b3"  >
<rect style="stroke: none; stroke-width: 1; stroke-dasharray: none; stroke-linecap: butt; stroke-dashoffset: 0; stroke-linejoin: miter; stroke-miterlimit: 4; fill: rgb(255,255,255); fill-rule: nonzero; opacity: 1; visibility: hidden;" vector-effect="non-scaling-stroke"  x="-540" y="-540" rx="0" ry="0" width="1080" height="1080" />
</g>
<g transform="matrix(1.58 0 0 1.08 540 542.65)" id="2d496a5c-1037-4368-86a5-5f73bc84b483"  >
<rect style="stroke: rgb(0,0,0); stroke-width: 0; stroke-dasharray: none; stroke-linecap: butt; stroke-dashoffset: 0; stroke-linejoin: miter; stroke-miterlimit: 4; fill: rgb(255,0,0); fill-rule: nonzero; opacity: 1;" vector-effect="non-scaling-stroke"  x="-33.085" y="-33.085" rx="0" ry="0" width="66.17" height="66.17" />
</g>
<g transform="matrix(0.31 0 0 0.31 505.72 528.66)" id="b6d0f173-cbee-4238-9b31-1c0f8526b7e3"  >
<polygon style="stroke: rgb(0,0,0); stroke-width: 0; stroke-dasharray: none; stroke-linecap: butt; stroke-dashoffset: 0; stroke-linejoin: miter; stroke-miterlimit: 4; fill: rgb(248,220,91); fill-rule: nonzero; opacity: 1;" vector-effect="non-scaling-stroke"  points="0,-35.47 11.56,-12.17 37.29,-8.4 18.68,9.8 23.06,35.47 0,23.42 -23.06,35.47 -18.74,9.8 -37.29,-8.4 -11.56,-12.17 " />
</g>
<g transform="matrix(0.11 0 0 0.11 518 514.1)"  >
<polygon style="stroke: rgb(0,0,0); stroke-width: 0; stroke-dasharray: none; stroke-linecap: butt; stroke-dashoffset: 0; stroke-linejoin: miter; stroke-miterlimit: 4; fill: rgb(248,220,91); fill-rule: nonzero; opacity: 1;" vector-effect="non-scaling-stroke"  points="0,-35.47 11.56,-12.17 37.29,-8.4 18.68,9.8 23.06,35.47 0,23.42 -23.06,35.47 -18.74,9.8 -37.29,-8.4 -11.56,-12.17 " />
</g>
<g transform="matrix(0.11 0 0 0.11 528.03 524.13)"  >
<polygon style="stroke: rgb(0,0,0); stroke-width: 0; stroke-dasharray: none; stroke-linecap: butt; stroke-dashoffset: 0; stroke-linejoin: miter; stroke-miterlimit: 4; fill: rgb(248,220,91); fill-rule: nonzero; opacity: 1;" vector-effect="non-scaling-stroke"  points="0,-35.47 11.56,-12.17 37.29,-8.4 18.68,9.8 23.06,35.47 0,23.42 -23.06,35.47 -18.74,9.8 -37.29,-8.4 -11.56,-12.17 " />
</g>
<g transform="matrix(0.11 0 0 0.11 518 546)"  >
<polygon style="stroke: rgb(0,0,0); stroke-width: 0; stroke-dasharray: none; stroke-linecap: butt; stroke-dashoffset: 0; stroke-linejoin: miter; stroke-miterlimit: 4; fill: rgb(248,220,91); fill-rule: nonzero; opacity: 1;" vector-effect="non-scaling-stroke"  points="0,-35.47 11.56,-12.17 37.29,-8.4 18.68,9.8 23.06,35.47 0,23.42 -23.06,35.47 -18.74,9.8 -37.29,-8.4 -11.56,-12.17 " />
</g>
<g transform="matrix(0.11 0 0 0.11 528 537)"  >
<polygon style="stroke: rgb(0,0,0); stroke-width: 0; stroke-dasharray: none; stroke-linecap: butt; stroke-dashoffset: 0; stroke-linejoin: miter; stroke-miterlimit: 4; fill: rgb(248,220,91); fill-rule: nonzero; opacity: 1;" vector-effect="non-scaling-stroke"  points="0,-35.47 11.56,-12.17 37.29,-8.4 18.68,9.8 23.06,35.47 0,23.42 -23.06,35.47 -18.74,9.8 -37.29,-8.4 -11.56,-12.17 " />
</g>
</svg>