<?xml version="1.0" encoding="UTF-8" standalone="no" ?>
<!DOCTYPE svg PUBLIC "-//W3C//DTD SVG 1.1//EN" "http://www.w3.org/Graphics/SVG/1.1/DTD/svg11.dtd">
<svg xmlns="http://www.w3.org/2000/svg" xmlns:xlink="http://www.w3.org/1999/xlink" version="1.1" width="1080" height="1080" viewBox="0 0 1080 1080" xml:space="preserve">
<desc>Created with Fabric.js 5.2.4</desc>
<defs>
</defs>
<rect x="0" y="0" width="100%" height="100%" fill="transparent"></rect>
<g transform="matrix(1 0 0 1 540 540)" id="fc4524a8-5264-4885-9bef-72e32fcca5b3"  >
<rect style="stroke: none; stroke-width: 1; stroke-dasharray: none; stroke-linecap: butt; stroke-dashoffset: 0; stroke-linejoin: miter; stroke-miterlimit: 4; fill: rgb(255,255,255); fill-rule: nonzero; opacity: 1; visibility: hidden;" vector-effect="non-scaling-stroke"  x="-540" y="-540" rx="0" ry="0" width="1080" height="1080" />
</g>
<g transform="matrix(1 0 0 1 540 540)" id="a7257f7f-78b3-431c-9880-83db6c1e6dfa"  >
</g>
<g transform="matrix(2.23 0 0 2.23 540 529.5)"  >
<g style="" vector-effect="non-scaling-stroke"   >
		<g transform="matrix(1 0 0 1 -23.01 1.44)"  >
<path style="stroke: none; stroke-width: 1; stroke-dasharray: none; stroke-linecap: butt; stroke-dashoffset: 0; stroke-linejoin: miter; stroke-miterlimit: 4; fill: rgb(255,255,255); fill-rule: nonzero; opacity: 1;" vector-effect="non-scaling-stroke"  transform=" translate(-26.99, -51.44)" d="M 17.167 17.104 C 19.436 16.122999999999998 21.89 15.937 24.470000000000002 16.491 L 36.80500000000001 85.472 C 34.534000000000006 86.884 32.07900000000001 87.06599999999999 29.439000000000007 86.085 C 25.328 63.133 21.277 40.119 17.167 17.104 z" stroke-linecap="round" />
</g>
		<g transform="matrix(1 0 0 1 5 -15.8)"  >
<polygon style="stroke: none; stroke-width: 1; stroke-dasharray: none; stroke-linecap: butt; stroke-dashoffset: 0; stroke-linejoin: miter; stroke-miterlimit: 4; fill: rgb(255,255,255); fill-rule: nonzero; opacity: 1;" vector-effect="non-scaling-stroke"  points="-22.68,-18.26 -20.77,-19.18 -18.93,-19.85 -17.09,-20.34 -15.31,-20.65 -13.53,-20.84 -11.81,-20.9 -10.09,-20.77 -8.38,-20.53 -6.66,-20.22 -5,-19.79 -3.35,-19.3 -1.69,-18.75 -0.09,-18.2 1.56,-17.58 3.16,-16.91 4.76,-16.29 6.35,-15.74 7.95,-15.13 9.54,-14.64 11.14,-14.21 12.74,-13.9 14.33,-13.72 15.93,-13.65 17.58,-13.78 19.18,-14.08 20.84,-14.64 22.31,-15.31 27.83,19.98 27.83,19.98 26.54,20.47 25.26,20.77 24.03,20.9 22.8,20.9 21.57,20.83 20.28,20.59 19,20.28 17.71,19.85 16.36,19.36 15.01,18.81 13.6,18.2 12.18,17.52 10.71,16.85 9.18,16.17 7.64,15.5 6.05,14.88 4.39,14.27 2.73,13.78 0.95,13.35 -0.83,12.98 -2.73,12.8 -4.63,12.8 -6.6,12.92 -8.62,13.23 -10.71,13.78 -12.86,14.51 -15.07,15.44 -17.28,16.66 -19.55,18.13 -21.39,19.49 -27.83,-14.76 -26.67,-15.68 -24.64,-17.09 " />
</g>
</g>
</g>
<g transform="matrix(1.32 0 0 1.32 539.97 585.61)"  >
<path style="stroke: rgb(0,0,0); stroke-width: 0; stroke-dasharray: none; stroke-linecap: butt; stroke-dashoffset: 0; stroke-linejoin: miter; stroke-miterlimit: 4; fill: rgb(255,191,68); fill-rule: nonzero; opacity: 1;" vector-effect="non-scaling-stroke"  transform=" translate(-50, -50)" d="M 29.366 58.748 C 29.684 59.519 30.39 60.031 31.159 60.159 L 31.993 60.159 C 32.951 60.031 33.72 59.260999999999996 33.976 58.364 L 33.976 16.706 C 33.976 14.59 35.707 13.82 37.504 13.692 C 39.425 13.692 41.607 14.207 41.607 16.706 L 41.607 45.483000000000004 C 41.991 46.316 42.888 46.956 43.912 46.956 C 45.003 46.956 45.899 46.252 46.222 45.227000000000004 L 46.222 36.894000000000005 C 46.222 32.791000000000004 53.848 32.85600000000001 53.848 36.894000000000005 L 53.848 45.547000000000004 C 54.232 46.38 55.062 46.956 56.025 46.956 C 57.178 46.956 58.14 46.187000000000005 58.463 45.097 L 58.463 40.162 C 58.976 36.51 66.024 36.702 66.024 40.612 L 66.024 45.547000000000004 C 66.409 46.38 67.305 46.956 68.267 46.956 C 69.42 46.956 70.321 46.187000000000005 70.639 45.227000000000004 L 70.639 43.176 C 70.639 39.138000000000005 78.265 39.138000000000005 78.265 43.176 L 78.265 79.32300000000001 C 78.265 83.23100000000001 75.125 86.30900000000001 71.217 86.30900000000001 L 38.786 86.30900000000001 C 36.286 86.30900000000001 34.299 84.51400000000001 33.275 82.91100000000002 L 28.209999999999997 75.09300000000002 L 22.508999999999997 66.44000000000001 C 22.058999999999997 65.73600000000002 21.737 64.96700000000001 21.737 61.76100000000001 L 21.737 46.827 C 21.737 42.726 29.368 42.726 29.368 46.827 L 29.368 58.748 z" stroke-linecap="round" />
</g>
<g transform="matrix(1.54 0 0 1.54 539.78 520.37)"  >
<path style="stroke: rgb(0,0,0); stroke-width: 0; stroke-dasharray: none; stroke-linecap: butt; stroke-dashoffset: 0; stroke-linejoin: miter; stroke-miterlimit: 4; fill: rgb(255,0,0); fill-rule: nonzero; opacity: 1;" vector-effect="non-scaling-stroke"  transform=" translate(-50, -50)" d="M 24.442 24.417 C 38.551 10.306000000000001 61.448 10.306000000000001 75.557 24.417 C 89.718 38.576 89.718 61.473 75.557 75.584 C 61.448 89.694 38.551 89.694 24.442 75.584 C 10.281 61.473 10.281 38.576 24.442 24.417 z M 34.835 29.637 L 70.388 65.188 C 77.768 55.196 76.965 41.087 67.977 32.048 C 58.94 23.01 44.779 22.208 34.835 29.637 z M 65.164 70.361 L 29.615 34.86 C 22.232 44.803 23.034 58.963 32.022999999999996 67.951 C 41.063 76.99 55.225 77.793 65.164 70.361 z" stroke-linecap="round" />
</g>
</svg>