<?xml version="1.0" encoding="UTF-8" standalone="no" ?>
<!DOCTYPE svg PUBLIC "-//W3C//DTD SVG 1.1//EN" "http://www.w3.org/Graphics/SVG/1.1/DTD/svg11.dtd">
<svg xmlns="http://www.w3.org/2000/svg" xmlns:xlink="http://www.w3.org/1999/xlink" version="1.1" width="1080" height="1080" viewBox="0 0 1080 1080" xml:space="preserve">
<desc>Created with Fabric.js 5.2.4</desc>
<defs>
</defs>
<g transform="matrix(1 0 0 1 540 540)" id="a7257f7f-78b3-431c-9880-83db6c1e6dfa"  >
</g>
<g transform="matrix(1 0 0 1 540 540)" id="fc4524a8-5264-4885-9bef-72e32fcca5b3"  >
<rect style="stroke: none; stroke-width: 1; stroke-dasharray: none; stroke-linecap: butt; stroke-dashoffset: 0; stroke-linejoin: miter; stroke-miterlimit: 4; fill: rgb(255,255,255); fill-rule: nonzero; opacity: 1; visibility: hidden;" vector-effect="non-scaling-stroke"  x="-540" y="-540" rx="0" ry="0" width="1080" height="1080" />
</g>
<g transform="matrix(1.58 0 0 1.08 540 542.65)" id="2d496a5c-1037-4368-86a5-5f73bc84b483"  >
<rect style="stroke: rgb(0,0,0); stroke-width: 0; stroke-dasharray: none; stroke-linecap: butt; stroke-dashoffset: 0; stroke-linejoin: miter; stroke-miterlimit: 4; fill: rgb(6,132,38); fill-rule: nonzero; opacity: 1;" vector-effect="non-scaling-stroke"  x="-33.085" y="-33.085" rx="0" ry="0" width="66.17" height="66.17" />
</g>
<g transform="matrix(0.8 0 0 1.08 566.69 542.83)" id="2d496a5c-1037-4368-86a5-5f73bc84b483"  >
<rect style="stroke: rgb(0,0,0); stroke-width: 0; stroke-dasharray: none; stroke-linecap: butt; stroke-dashoffset: 0; stroke-linejoin: miter; stroke-miterlimit: 4; fill: rgb(255,0,0); fill-rule: nonzero; opacity: 1;" vector-effect="non-scaling-stroke"  x="-33.085" y="-33.085" rx="0" ry="0" width="66.17" height="66.17" />
</g>
<g transform="matrix(0.49 0 0 0.49 540 542)" id="ce413d08-fd3d-4eab-abf3-84c6cc41e0f8"  >
<circle style="stroke: rgb(255,221,68); stroke-width: 2; stroke-dasharray: none; stroke-linecap: butt; stroke-dashoffset: 0; stroke-linejoin: miter; stroke-miterlimit: 4; fill: rgb(255,221,68); fill-opacity: 0; fill-rule: nonzero; opacity: 1;" vector-effect="non-scaling-stroke"  cx="0" cy="0" r="35" />
</g>
<g transform="matrix(0.47 0 0 0.47 539.51 541.51)"  >
<path style="stroke: rgb(255,221,68); stroke-width: 1; stroke-dasharray: none; stroke-linecap: butt; stroke-dashoffset: 0; stroke-linejoin: miter; stroke-miterlimit: 4; fill: rgb(101,101,101); fill-opacity: 0; fill-rule: nonzero; opacity: 1;" vector-effect="non-scaling-stroke"  transform=" translate(-50, -50)" d="M 49.975 12.826 C 70.509 12.826 87.174 29.492 87.174 50.025 C 87.174 70.509 70.50900000000001 87.174 49.97500000000001 87.174 C 29.492000000000008 87.174 12.826000000000008 70.50900000000001 12.826000000000008 50.025000000000006 C 12.826 29.492 29.492 12.826 49.975 12.826 z M 70.924 34.444 L 55.343 50.025 L 70.924 65.55499999999999 C 74.174 61.22099999999999 76.08200000000001 55.85499999999999 76.08200000000001 50.02499999999999 C 76.082 44.195 74.174 38.777 70.924 34.444 z M 65.557 70.973 L 49.975 55.391 L 34.447 70.92099999999999 C 38.78 74.172 44.145 76.08099999999999 49.975 76.08099999999999 C 55.806 76.081 61.223 74.172 65.557 70.973 z M 29.079 65.555 L 44.611000000000004 50.025000000000006 L 29.079 34.444 C 25.830000000000002 38.777 23.921 44.195 23.921 50.025000000000006 C 23.921 55.854 25.83 61.221 29.079 65.555 z M 34.394 29.078 L 49.974999999999994 44.661 L 65.55699999999999 29.078000000000003 C 61.222999999999985 25.828000000000003 55.80599999999999 23.92 49.97499999999999 23.92 C 44.145 23.919 38.781 25.828 34.394 29.078 z" stroke-linecap="round" />
</g>
<g transform="matrix(0.29 0 0 0.29 539.87 540.89)" id="492d9447-20b4-4031-89ce-23d95a9ae483"  >
<polygon style="stroke: rgb(0,0,0); stroke-width: 0; stroke-dasharray: none; stroke-linecap: butt; stroke-dashoffset: 0; stroke-linejoin: miter; stroke-miterlimit: 4; fill: rgb(255,0,0); fill-rule: nonzero; opacity: 1;" vector-effect="non-scaling-stroke"  points="-18.54,32.11 -37.08,0 -18.54,-32.11 18.54,-32.11 37.08,0 18.54,32.11 " />
</g>
<g transform="matrix(0.15 0 0 0.15 539.92 539.92)" id="16248166-f9f2-47e1-8f90-8ede1a27b9c1"  >
<rect style="stroke: rgb(0,0,0); stroke-width: 0; stroke-dasharray: none; stroke-linecap: butt; stroke-dashoffset: 0; stroke-linejoin: miter; stroke-miterlimit: 4; fill: rgb(255,255,255); fill-rule: nonzero; opacity: 1;" vector-effect="non-scaling-stroke"  x="-33.085" y="-33.085" rx="0" ry="0" width="66.17" height="66.17" />
</g>
<g transform="matrix(0.14 0 0 0.12 539.8 543.92)" id="92a1d386-f26f-48d2-a590-2aaf7c7bd249"  >
<circle style="stroke: rgb(0,0,0); stroke-width: 0; stroke-dasharray: none; stroke-linecap: butt; stroke-dashoffset: 0; stroke-linejoin: miter; stroke-miterlimit: 4; fill: rgb(255,255,255); fill-rule: nonzero; opacity: 1;" vector-effect="non-scaling-stroke"  cx="0" cy="0" r="35" />
</g>
<g transform="matrix(0.04 0 0 0.04 537.03 541)"  >
<g style="" vector-effect="non-scaling-stroke"   >
		<g transform="matrix(1 0 0 1 -15.64 0)"  >
<rect style="stroke: none; stroke-width: 1; stroke-dasharray: none; stroke-linecap: butt; stroke-dashoffset: 0; stroke-linejoin: miter; stroke-miterlimit: 4; fill: rgb(0,4,104); fill-rule: nonzero; opacity: 1;" vector-effect="non-scaling-stroke"  x="-11.465" y="-37.75" rx="0" ry="0" width="22.93" height="75.5" />
</g>
		<g transform="matrix(1 0 0 1 15.63 0)"  >
<rect style="stroke: none; stroke-width: 1; stroke-dasharray: none; stroke-linecap: butt; stroke-dashoffset: 0; stroke-linejoin: miter; stroke-miterlimit: 4; fill: rgb(0,4,104); fill-rule: nonzero; opacity: 1;" vector-effect="non-scaling-stroke"  x="-11.465" y="-37.75" rx="0" ry="0" width="22.93" height="75.5" />
</g>
</g>
</g>
<g transform="matrix(0.04 0 0 0.04 543.3 541.34)"  >
<g style="" vector-effect="non-scaling-stroke"   >
		<g transform="matrix(1 0 0 1 -15.64 0)"  >
<rect style="stroke: none; stroke-width: 1; stroke-dasharray: none; stroke-linecap: butt; stroke-dashoffset: 0; stroke-linejoin: miter; stroke-miterlimit: 4; fill: rgb(0,4,104); fill-rule: nonzero; opacity: 1;" vector-effect="non-scaling-stroke"  x="-11.465" y="-37.75" rx="0" ry="0" width="22.93" height="75.5" />
</g>
		<g transform="matrix(1 0 0 1 15.63 0)"  >
<rect style="stroke: none; stroke-width: 1; stroke-dasharray: none; stroke-linecap: butt; stroke-dashoffset: 0; stroke-linejoin: miter; stroke-miterlimit: 4; fill: rgb(0,4,104); fill-rule: nonzero; opacity: 1;" vector-effect="non-scaling-stroke"  x="-11.465" y="-37.75" rx="0" ry="0" width="22.93" height="75.5" />
</g>
</g>
</g>
<g transform="matrix(0.04 0 0 0.04 540.3 545.34)"  >
<g style="" vector-effect="non-scaling-stroke"   >
		<g transform="matrix(1 0 0 1 -15.64 0)"  >
<rect style="stroke: none; stroke-width: 1; stroke-dasharray: none; stroke-linecap: butt; stroke-dashoffset: 0; stroke-linejoin: miter; stroke-miterlimit: 4; fill: rgb(0,4,104); fill-rule: nonzero; opacity: 1;" vector-effect="non-scaling-stroke"  x="-11.465" y="-37.75" rx="0" ry="0" width="22.93" height="75.5" />
</g>
		<g transform="matrix(1 0 0 1 15.63 0)"  >
<rect style="stroke: none; stroke-width: 1; stroke-dasharray: none; stroke-linecap: butt; stroke-dashoffset: 0; stroke-linejoin: miter; stroke-miterlimit: 4; fill: rgb(0,4,104); fill-rule: nonzero; opacity: 1;" vector-effect="non-scaling-stroke"  x="-11.465" y="-37.75" rx="0" ry="0" width="22.93" height="75.5" />
</g>
</g>
</g>
<g transform="matrix(0.04 0 0 0.04 540.3 537.34)"  >
<g style="" vector-effect="non-scaling-stroke"   >
		<g transform="matrix(1 0 0 1 -15.64 0)"  >
<rect style="stroke: none; stroke-width: 1; stroke-dasharray: none; stroke-linecap: butt; stroke-dashoffset: 0; stroke-linejoin: miter; stroke-miterlimit: 4; fill: rgb(0,4,104); fill-rule: nonzero; opacity: 1;" vector-effect="non-scaling-stroke"  x="-11.465" y="-37.75" rx="0" ry="0" width="22.93" height="75.5" />
</g>
		<g transform="matrix(1 0 0 1 15.63 0)"  >
<rect style="stroke: none; stroke-width: 1; stroke-dasharray: none; stroke-linecap: butt; stroke-dashoffset: 0; stroke-linejoin: miter; stroke-miterlimit: 4; fill: rgb(0,4,104); fill-rule: nonzero; opacity: 1;" vector-effect="non-scaling-stroke"  x="-11.465" y="-37.75" rx="0" ry="0" width="22.93" height="75.5" />
</g>
</g>
</g>
</svg>